<svg id="visual" viewBox="0 0 600 600" width="600" height="600" xmlns="http://www.w3.org/2000/svg" xmlns:xlink="http://www.w3.org/1999/xlink" version="1.1"><rect x="0" y="0" width="600" height="600" fill="#1a1a1a"></rect><path d="M0 87L100 81L200 138L300 85L400 203L500 201L600 112L600 601L500 601L400 601L300 601L200 601L100 601L0 601Z" fill="#00e90e"></path><path d="M0 167L100 197L200 150L300 208L400 193L500 163L600 194L600 601L500 601L400 601L300 601L200 601L100 601L0 601Z" fill="#22c81d"></path><path d="M0 272L100 305L200 227L300 276L400 208L500 213L600 212L600 601L500 601L400 601L300 601L200 601L100 601L0 601Z" fill="#2ca823"></path><path d="M0 297L100 270L200 307L300 270L400 339L500 341L600 314L600 601L500 601L400 601L300 601L200 601L100 601L0 601Z" fill="#2f8925"></path><path d="M0 407L100 350L200 317L300 377L400 403L500 349L600 348L600 601L500 601L400 601L300 601L200 601L100 601L0 601Z" fill="#2e6b25"></path><path d="M0 416L100 442L200 389L300 380L400 449L500 426L600 432L600 601L500 601L400 601L300 601L200 601L100 601L0 601Z" fill="#2a4f23"></path><path d="M0 465L100 443L200 497L300 477L400 454L500 473L600 440L600 601L500 601L400 601L300 601L200 601L100 601L0 601Z" fill="#23331f"></path><path d="M0 518L100 509L200 545L300 556L400 515L500 512L600 529L600 601L500 601L400 601L300 601L200 601L100 601L0 601Z" fill="#1a1a1a"></path></svg>